<svg id="Layer_5" enable-background="new 0 0 64 64" height="512" viewBox="0 0 64 64" width="512" xmlns="http://www.w3.org/2000/svg" xmlns:xlink="http://www.w3.org/1999/xlink">
<path d="m57 32c0-.624-.044-1.249-.132-1.857l1.979-.285c.102.702.153 1.423.153 2.142zm-13-15v2c5.704 0 10.827 3.818 12.46 9.286l1.916-.572c-1.884-6.308-7.795-10.714-14.376-10.714zm19 15v3.544c0 5.075-1.976 9.847-5.565 13.435l-2.435 2.435v11.586h-2v-12.414l3.021-3.021c3.211-3.211 4.979-7.48 4.979-12.021v-3.544c0-9.374-7.626-17-17-17-6.483 0-12.125 3.65-14.992 9h8.406l4.567 4.567c.595-.352 1.279-.567 2.019-.567 2.206 0 4 1.794 4 4s-1.794 4-4 4-4-1.794-4-4c0-.74.215-1.424.567-2.019l-3.981-3.981h-8.472c-.708 1.869-1.114 3.886-1.114 6v9.279l2.937.979.976 10.742h9.087c3.86 0 7-3.14 7-7v-1h2v1c0 4.962-4.038 9-9 9h-3v8h-2v-8h-5.913l-1.023-11.258-3.064-1.021v-4.413c-1.319.364-2.656.576-4 .649v12.228c1.161.414 2 1.514 2 2.816 0 1.654-1.346 3-3 3s-3-1.346-3-3c0-1.302.839-2.402 2-2.816v-12.236c-2.88-.151-5.597-.924-8-2.222v2.859l2 2v6.598c1.161.414 2 1.514 2 2.816 0 1.654-1.346 3-3 3s-3-1.346-3-3c0-1.302.839-2.402 2-2.816v-5.77l-2-2v-4.951c-4.833-3.448-8-9.087-8-15.463 0-10.477 8.523-19 19-19 5.824 0 11.174 2.681 14.703 7h8.883l2-2h8.598c.414-1.161 1.514-2 2.816-2 1.654 0 3 1.346 3 3s-1.346 3-3 3c-1.302 0-2.402-.839-2.816-2h-7.77l-2 2h-8.295c.768 1.237 1.4 2.571 1.874 3.989 1.89-.632 3.906-.989 6.007-.989 10.477 0 19 8.523 19 19zm-7-25c0 .551.449 1 1 1s1-.449 1-1-.449-1-1-1-1 .449-1 1zm-43 44c0-.551-.449-1-1-1s-1 .449-1 1 .449 1 1 1 1-.449 1-1zm31-21c-1.103 0-2 .897-2 2s.897 2 2 2 2-.897 2-2-.897-2-2-2zm-19.36-26.337c1.247 1.557 2.288 3.728 3.04 6.337h6.031c-2.226-3.05-5.42-5.293-9.071-6.337zm2.155 20.327c.101-.979.153-1.981.179-2.99h-3.116c-.094.363-.238.704-.425 1.019l1.981 1.981h1.376c.002-.003.004-.007.005-.01zm-4.795-3.99c0-1.103-.897-2-2-2s-2 .897-2 2 .897 2 2 2 2-.897 2-2zm4.154-8h-12.308c-.467 2.058-.762 4.412-.824 7h3.12c.447-1.72 2-3 3.858-3s3.411 1.28 3.858 3h3.12c-.062-2.588-.357-4.942-.824-7zm-21.146 16h6.809c-.459-2.138-.735-4.496-.794-7h-7.972c.147 2.517.828 4.892 1.957 7zm6.015-9c.059-2.504.335-4.862.794-7h-6.809c-1.129 2.108-1.81 4.483-1.958 7zm14.602-9c-1.361-4.388-3.537-7-5.625-7s-4.264 2.612-5.625 7zm-19.342 0h6.037c.753-2.611 1.795-4.783 3.043-6.341-3.694 1.05-6.869 3.317-9.08 6.341zm9.079 26.341c-1.248-1.557-2.29-3.73-3.043-6.341h-6.036c2.211 3.024 5.386 5.291 9.079 6.341zm5.638 17.659c0-.551-.449-1-1-1s-1 .449-1 1 .449 1 1 1 1-.449 1-1zm4-17.784v-4.216c0-.676.038-1.342.107-2h-10.732c1.361 4.388 3.538 7 5.625 7 1.68 0 3.357-.273 5-.784zm.986-10.216h-1.4l-2.567-2.567c-.595.352-1.279.567-2.019.567-1.858 0-3.411-1.28-3.858-3h-3.12c.062 2.588.357 4.942.824 7h11.586c.147-.682.336-1.347.554-2zm10.144-11.272c-.311-.952-.698-1.864-1.16-2.728h-6.787c.52 2.422.817 5.122.817 8 0 .132-.009.263-.01.395 1.878-2.424 4.322-4.378 7.14-5.667z" fill="royalblue"/></svg>